<svg xmlns="http://www.w3.org/2000/svg" width="92" height="92" viewBox="0 0 92 92"><g transform="translate(-1854.092 1.088)"><g transform="translate(1886.258 14.912)"><g transform="translate(-16.167 0)"><rect width="92" height="92" rx="45" transform="translate(-16 -16)" fill="#33bd8c"/><g transform="translate(8.604 4.225)"><path d="M34.859,11H22.45a1.913,1.913,0,0,0,0,3.825h12.41A1.913,1.913,0,0,0,34.859,11Z" transform="translate(-10.479 -4.306)" fill="#fff"/><path d="M45.057,5.219A.916.916,0,0,0,44.209,4H15.365a.908.908,0,0,0-.848.587L9.108,19.035c-.28.549.088,32.319-.054,32.825a2.715,2.715,0,0,0,2.7,2.709H39.7V19.514c.582-1.547,4.885-13.039,5.355-14.295Zm-12.3,29.728a10.576,10.576,0,0,1-8.572,10.4.9.9,0,1,1-.342-1.77,8.784,8.784,0,0,0,7.112-8.633V33.493a25.71,25.71,0,0,1-4.715,1.5c-4.378.879-7.911,2.583-8.4,7.5a21.573,21.573,0,0,1,7.59-4.768.9.9,0,0,1,.621,1.689,20.238,20.238,0,0,0-8.32,5.815.88.88,0,0,1-.91.271.918.918,0,0,1-.658-.7,9.478,9.478,0,0,1,4.291-9.744A22.714,22.714,0,0,1,25.8,33.24a18.845,18.845,0,0,0,5.571-2.014.906.906,0,0,1,1.379.768v2.953ZM36.439,13a3.608,3.608,0,0,1-3.5,2.736H21.223a3.612,3.612,0,0,1,0-7.224H32.942A3.632,3.632,0,0,1,36.439,13Zm14.026,6.032L46.914,9.545V54.57h.9a2.715,2.715,0,0,0,2.7-2.709c-.061-.813.111-31.941-.054-32.825Z" transform="translate(-9 -4)" fill="#fff"/><path d="M45,54.871h3.818V10.89L45,20.428Z" transform="translate(-13.023 -4.301)" fill="#fff"/></g></g></g></g></svg>