<svg xmlns="http://www.w3.org/2000/svg" width="92" height="92" viewBox="0 0 92 92"><g transform="translate(-151 -131.912)"><g transform="translate(-1704.314 132)"><g transform="translate(1871.481 0)"><g transform="translate(-16.167 0)"><rect width="92" height="92" rx="45" transform="translate(0 -0.088)" fill="#33bd8c"/><g transform="translate(25 17.912)"><path d="M5.467.531a2.838,2.838,0,0,0-2.82,2.827V50.4a2.837,2.837,0,0,0,2.82,2.827h13.1l-4.1-11.3H7.348a.942.942,0,0,1-.946-.942V9a.942.942,0,0,1,.946-.946H35.574A.942.942,0,0,1,36.509,9V32.54a5.055,5.055,0,0,1,3.538,1.906c.071-.011.149-.007.228-.014V3.354A2.838,2.838,0,0,0,37.455.527ZM18.634,4.3h5.643a.942.942,0,1,1,0,1.881H18.634a.942.942,0,1,1,0-1.885Zm2.827,9.412a2.838,2.838,0,0,0-2.827,2.816,2.77,2.77,0,0,0,.284,1.205,8.267,8.267,0,0,0-5.689,3.983,9.387,9.387,0,0,0-.914,2.347H23.68a5.124,5.124,0,0,1,5.91,0H30.6a9.256,9.256,0,0,0-.914-2.347A8.264,8.264,0,0,0,24,17.73a2.777,2.777,0,0,0,.277-1.205,2.83,2.83,0,0,0-2.816-2.816ZM26.635,25a3.3,3.3,0,0,0-3.293,3.293V40.417l-1.159-1.931a5.085,5.085,0,0,0-1.5-1.682,3.022,3.022,0,0,0-2.432-.409,3.27,3.27,0,0,0-2.308,4.089l3.879,10.724c1.006,3.751,4.964,5.668,4.964,5.668a.891.891,0,0,0,.437.1H39.208a1,1,0,0,0,.782-.263s4.05-3.936,4.05-9.139v-8a3.307,3.307,0,0,0-3.3-3.293,3.236,3.236,0,0,0-1.575.427A3.3,3.3,0,0,0,36.047,34.4a3.254,3.254,0,0,0-1.586.427,3.3,3.3,0,0,0-3.126-2.308,3.236,3.236,0,0,0-1.408.334V28.288A3.307,3.307,0,0,0,26.635,25Zm-15.575.942a.946.946,0,0,0-.893.935,3.777,3.777,0,0,0,3.762,3.762h7.531V28.291a5.138,5.138,0,0,1,.576-2.35Zm20.172,0a5.09,5.09,0,0,1,.576,2.347v1.042a3.726,3.726,0,0,0,.935-2.454.939.939,0,0,0-.935-.935Z" transform="translate(-2.647 -0.527)" fill="#fff"/></g></g></g></g></g></svg>