<svg xmlns="http://www.w3.org/2000/svg" width="92" height="92" viewBox="0 0 92 92"><g transform="translate(-1840.07 16.088)"><g transform="translate(1871.481 0)"><g transform="translate(-16.167 0)"><rect width="92" height="92" rx="45" transform="translate(-15.245 -16.088)" fill="#33bd8c"/><g transform="translate(2.446 1.714)"><path d="M22.986,6h6.732V8.524H22.986ZM36.444,27.6c-2.1,0-2.1-2.244-4.206-2.244s-2.1,2.244-4.206,2.244-2.1-2.244-4.207-2.244-2.1,2.244-4.2,2.244-2.1-2.244-4.208-2.244S13.308,27.6,11.2,27.6,9.1,25.353,6.991,25.353V51.439H39.808V25.5C38.5,26,38.219,27.6,36.444,27.6Zm8.416,0c-1.777,0-2.058-1.6-3.369-2.094V51.439h7.581V25.353C46.966,25.353,46.966,27.6,44.86,27.6Z" transform="translate(0 -0.317)" fill="#fff"/><path d="M19.623,25.6c.273,0,.362-.043.873-.589a4.181,4.181,0,0,1,6.662,0c.507.541.6.589.87.589a11.974,11.974,0,0,1,.259-5.21,11.134,11.134,0,0,1,3.7-5.928,7.29,7.29,0,0,0-3.107-2.044V9.89H23.829v2.524a7.384,7.384,0,0,0-5.049,7.005v5.623c.456.485.564.555.842.555Zm24.361-.59c.491.524.59.591.878.591s.387-.067.879-.592c.172-.183.373-.392.605-.6.732-3.75-.573-7.175-3.095-7.851a3.822,3.822,0,0,0-2.688.332,3.935,3.935,0,0,1,1.185-2.24,2.8,2.8,0,0,1,2.261-.51.841.841,0,1,0,.227-1.667,4.44,4.44,0,0,0-3.554.875,5.562,5.562,0,0,0-1.752,3.126,3.832,3.832,0,0,0-2.18-1.658c-2.693-.723-5.755,1.967-6.837,6.008a10.666,10.666,0,0,0-.351,3.544,3.894,3.894,0,0,1,2.678-1.014,4.284,4.284,0,0,1,3.33,1.654c.512.546.6.589.875.589s.364-.043.875-.589a4.183,4.183,0,0,1,6.664,0Zm-33.658,0c.491.524.59.591.878.591s.387-.067.879-.592a4.287,4.287,0,0,1,3.332-1.653,3.946,3.946,0,0,1,1.683.354V19.42a9.029,9.029,0,0,1,1.072-4.238C15.388,8.073,11.925,3.411,9.5,4.061c-3.007.805-3.324,9.465-.816,19.651A5.3,5.3,0,0,1,10.326,25.007ZM14.988,15.4a.841.841,0,0,1,.528,1.066l-1.945,5.747a.842.842,0,0,1-1.595-.539l1.945-5.747a.841.841,0,0,1,1.066-.528Zm-4.971-.2,1.944-5.747a.842.842,0,0,1,1.595.539l-1.944,5.748a.841.841,0,1,1-1.594-.539Z" transform="translate(-0.002 0)" fill="#fff"/></g></g></g></g></svg>