<svg xmlns="http://www.w3.org/2000/svg" width="92" height="92" viewBox="0 0 92 92"><g transform="translate(-1839.73 16.088)"><g transform="translate(1871.481 0)"><g transform="translate(-16.167 0)"><rect width="92" height="92" rx="45" transform="translate(-15.584 -16.088)" fill="#33bd8c"/><g transform="translate(13.216 3.99)"><rect width="1.853" height="5.56" transform="translate(9.349 14.882)" fill="#fff"/><rect width="1.853" height="5.56" transform="translate(24.111 14.882)" fill="#fff"/><path d="M27,20h7.251v1.45H27Z" transform="translate(-13.426 -3.559)" fill="#fff"/><path d="M27.667,46.417a.809.809,0,0,0,1.065,0c.68-.591,16.667-14.568,16.667-28.936A17.361,17.361,0,0,0,28.2,0,17.361,17.361,0,0,0,11,17.481C11,31.849,26.988,45.834,27.667,46.417ZM14.276,17.481a13.926,13.926,0,1,1,27.847,0,13.926,13.926,0,1,1-27.847,0Z" transform="translate(-11 0)" fill="#fff"/><path d="M41.545,18.431a12.521,12.521,0,1,0-12.52,12.431A12.491,12.491,0,0,0,41.545,18.431ZM24.851,22.161a2.079,2.079,0,0,1-2.087,2.072H21.095a2.079,2.079,0,0,1-2.087-2.072V14.7a2.079,2.079,0,0,1,2.087-2.072h1.669A2.079,2.079,0,0,1,24.851,14.7v1.243H33.2V14.7a2.079,2.079,0,0,1,2.087-2.072h1.669A2.079,2.079,0,0,1,39.041,14.7v7.459a2.079,2.079,0,0,1-2.087,2.072H35.285A2.079,2.079,0,0,1,33.2,22.161V20.918H24.851ZM39.124,39.623a68.815,68.815,0,0,1-8.48,8.884A2.52,2.52,0,0,1,27.4,48.5a68.811,68.811,0,0,1-8.48-8.884C15.795,41.156,14,43.352,14,45.772c0,4.649,6.6,8.288,15.024,8.288s15.024-3.638,15.024-8.288c0-2.428-1.795-4.624-4.925-6.158Z" transform="translate(-11.825 -1.649)" fill="#fff"/></g></g></g></g></svg>