<svg xmlns="http://www.w3.org/2000/svg" width="92" height="92" viewBox="0 0 92 92"><g transform="translate(-1840.422 15.088)"><g transform="translate(1871.481 -0.088)"><g transform="translate(-16.167 0)"><rect width="92" height="92" rx="45" transform="translate(-14.892 -15)" fill="#33bd8c"/><g transform="translate(8.547 4.032)"><path d="M118.434,1.916a7.966,7.966,0,0,0-7.957,7.957.833.833,0,1,0,1.667,0,6.3,6.3,0,0,1,6.29-6.29.833.833,0,0,0,0-1.667Zm-9.975,8.06a9.975,9.975,0,1,1,19.95,0V23.432a17.355,17.355,0,0,0-2.158,2.141H108.459Zm9.975,42.838a9.987,9.987,0,0,1-9.975-9.975V27.24H125a17.833,17.833,0,0,0-1.272,2.277,17.6,17.6,0,0,0,2.806,19.119A9.928,9.928,0,0,1,118.434,52.814Zm13.759-1.819a15.924,15.924,0,0,1-2.5-26.458.837.837,0,0,0,.131-.1,15.956,15.956,0,0,1,15.8-2.238Zm21.89-7.324A15.931,15.931,0,0,1,133.7,51.7l13.43-28.8a15.911,15.911,0,0,1,6.95,20.772Z" transform="translate(-108.459)" fill="#fff"/></g></g></g></g></svg>