<svg xmlns="http://www.w3.org/2000/svg" width="48" height="48" viewBox="0 0 48 48">
  <g id="upload_ic" transform="translate(-1 -1)">
    <path id="Path_316140" data-name="Path 316140" d="M46.818,13a2.182,2.182,0,0,0-2.182,2.182v9.192a6.087,6.087,0,0,1-6.081,6.081H11.444a6.087,6.087,0,0,1-6.081-6.081V15.182a2.182,2.182,0,1,0-4.364,0v9.192A10.455,10.455,0,0,0,11.444,34.818H38.556A10.455,10.455,0,0,0,49,24.374V15.182A2.182,2.182,0,0,0,46.818,13Z" transform="translate(0 14.182)" fill="#0122fd"/>
    <path id="Path_316141" data-name="Path 316141" d="M8.724,17.815l9.367-9.367v27.46a2.182,2.182,0,1,0,4.364,0V8.448l9.367,9.367a2.182,2.182,0,1,0,3.085-3.085L21.815,1.639a2.182,2.182,0,0,0-3.085,0L5.639,14.73a2.182,2.182,0,1,0,3.085,3.085Z" transform="translate(4.727 0)" fill="#0122fd"/>
  </g>
</svg>
