<svg id="choose_delivery_address" xmlns="http://www.w3.org/2000/svg" width="20.8" height="25" viewBox="0 0 20.8 25">
  <g id="Group_146255" data-name="Group 146255" transform="translate(0 0)">
    <g id="Group_33" data-name="Group 33" transform="translate(0)">
      <path id="Path_49" data-name="Path 49" d="M421.509,412.414c-.06.176-.136.381-.23.611-.058.141-.122.29-.194.447a11.565,11.565,0,0,1-3.2,4.161l-.126.118-.007,0c-.866.808-1.813,1.668-2.707,2.469l-.1.09c-1.925,1.725-3.574,3.153-3.574,3.153l-6.416-5.784-.008-.006-.83-.75a12.848,12.848,0,0,1-2.027-2.518c0-.007-.008-.014-.012-.021A8.359,8.359,0,0,1,401,411.779h2.641s2.088,5.71,7.816,5.5a8.27,8.27,0,0,0,3.443-.861c.157-.079.308-.161.455-.248s.289-.176.426-.268c.107-.072.211-.147.312-.223l.069-.051.058-.044.009-.007.03-.023c.036-.028.07-.054.1-.083l.09-.074c.03-.023.06-.049.089-.074l.014-.013c.1-.084.195-.171.287-.258.016-.014.032-.029.048-.044l.091-.089.058-.058q.078-.078.153-.157l.11-.118c.036-.038.069-.076.1-.114a.039.039,0,0,1,.007-.007l.1-.114c.085-.1.166-.2.242-.295.038-.048.074-.094.11-.142s.072-.1.107-.142.072-.1.108-.15l.1-.148c.061-.09.119-.179.173-.265,0-.007.008-.013.011-.019s.014-.024.023-.038c.021-.033.042-.067.061-.1l.006-.009v0a.071.071,0,0,1,.008-.012h0l.026-.043.013-.023,0-.006c.071-.112.152-.246.237-.379,0,0,0,0,0,0s0,0,0,0c.189-.3.387-.615.489-.775l2.056-.028A1.314,1.314,0,0,1,421.509,412.414Z" transform="translate(-400.713 -398.467)" fill="#242424"/>
      <path id="Path_50" data-name="Path 50" d="M520.511,376.151v2.561h-2.354a2.933,2.933,0,0,0,.022-2.561Z" transform="translate(-504.847 -366.809)" fill="#242424"/>
      <path id="Path_51" data-name="Path 51" d="M456.9,343.321a5.369,5.369,0,1,0,.15,1.258A5.278,5.278,0,0,0,456.9,343.321Zm-5.213,4.184a2.926,2.926,0,1,1,2.644-4.184,2.714,2.714,0,0,1,.12.293c.018.051.034.1.049.153s.029.1.04.157c.007.027.012.052.017.079q.017.075.027.153a.066.066,0,0,1,0,.016c0,.024.007.049.009.073s.007.055.008.082.006.054.007.082h0s0,0,0,0c0,.027,0,.053,0,.081a.264.264,0,0,1,0,.042c0,.013,0,.028,0,.042s0,.03,0,.044a.278.278,0,0,1,0,.043c0,.058,0,.116-.01.172,0,.029-.005.057-.009.086s-.007.057-.011.084-.009.057-.014.084-.009.052-.014.078-.012.059-.019.088c-.013.054-.027.109-.043.162-.008.027-.017.053-.026.08s-.018.052-.028.078-.018.049-.027.073-.022.055-.035.081a.633.633,0,0,1-.033.075c-.01.026-.022.05-.034.074A2.926,2.926,0,0,1,451.685,347.505Z" transform="translate(-440.996 -333.979)" fill="#242424"/>
      <path id="Path_52" data-name="Path 52" d="M456.9,343.321a5.369,5.369,0,1,0,.15,1.258A5.278,5.278,0,0,0,456.9,343.321Zm-5.213,4.184a2.926,2.926,0,1,1,2.644-4.184,2.714,2.714,0,0,1,.12.293c.018.051.034.1.049.153s.029.1.04.157c.007.027.012.052.017.079q.017.075.027.153a.066.066,0,0,1,0,.016c0,.024.007.049.009.073s.007.055.008.082.006.054.007.082h0s0,0,0,0c0,.027,0,.053,0,.081a.264.264,0,0,1,0,.042c0,.013,0,.028,0,.042s0,.03,0,.044a.278.278,0,0,1,0,.043c0,.058,0,.116-.01.172,0,.029-.005.057-.009.086s-.007.057-.011.084-.009.057-.014.084-.009.052-.014.078-.012.059-.019.088c-.013.054-.027.109-.043.162-.008.027-.017.053-.026.08s-.018.052-.028.078-.018.049-.027.073-.022.055-.035.081a.633.633,0,0,1-.033.075c-.01.026-.022.05-.034.074A2.926,2.926,0,0,1,451.685,347.505Z" transform="translate(-440.996 -333.979)" fill="#242424"/>
      <path id="Path_53" data-name="Path 53" d="M529.916,419.027c-.073.153-.151.3-.233.451-.01.018-.02.036-.031.053-.07.123-.142.245-.219.363a8.163,8.163,0,0,1-3.36,2.973q.235-.118.455-.248c.147-.087.289-.176.425-.268.107-.072.211-.147.312-.223l.069-.051c.019-.014.039-.029.058-.044l.009-.007.03-.023c.036-.028.07-.055.1-.083l.09-.074c.03-.023.06-.049.089-.075l.014-.013c.1-.084.194-.171.287-.258l.048-.045.091-.089.058-.058q.078-.078.153-.157l.11-.118c.036-.038.069-.076.1-.114a.04.04,0,0,1,.007-.007c.034-.039.068-.077.1-.114.084-.1.166-.2.242-.295.039-.048.076-.094.11-.142s.072-.1.107-.142.072-.1.108-.15l.1-.148c.061-.09.119-.179.173-.265l.011-.019c.007-.012.014-.024.023-.038.021-.033.042-.067.061-.1l.006-.009v0a.073.073,0,0,1,.008-.012h0l.026-.043.013-.023,0-.006C529.75,419.294,529.832,419.16,529.916,419.027Z" transform="translate(-511.884 -404.92)" fill="#242424"/>
      <path id="Path_54" data-name="Path 54" d="M419.189,306.034a1.312,1.312,0,0,0-.217-.647l-2.056.028c-.1.16-.3.473-.489.775,0,0,0,0,0,0s0,0,0,0c-.084.133-.166.267-.237.379l0,.005-.013.023a.132.132,0,0,1-.011.017c-.006.009-.011.018-.016.027l-.008.012v0l-.005.009c-.019.032-.04.066-.061.1-.009.013-.017.026-.023.038l-.011.019c-.054.086-.112.174-.173.264l-.1.148c-.036.05-.071.1-.108.15s-.07.095-.107.142-.072.094-.11.142c-.077.1-.158.2-.242.294l-.1.114a.038.038,0,0,0-.007.007c-.034.039-.068.077-.1.114l-.11.118q-.075.078-.153.157l-.058.058-.091.089c-.016.016-.032.03-.048.044-.092.087-.188.173-.287.258l-.014.013c-.029.026-.059.051-.089.074l-.09.074c-.034.029-.069.056-.1.083l-.03.023-.009.007-.058.044-.069.051c-.1.077-.206.151-.312.223-.137.092-.279.182-.426.268s-.3.169-.455.248a8.138,8.138,0,1,1,3.476-11.538l.041.068c.132.226.254.458.365.7.321.53.729,1.006,1.2,1.006a1.307,1.307,0,0,0,1.307-1.308,1.284,1.284,0,0,0-.061-.395h0a.146.146,0,0,0-.008-.019c-.033-.077-.067-.154-.1-.23a10.692,10.692,0,0,0-20.323,3.113c-.022.173-.04.349-.052.525-.021.272-.031.546-.031.822s.01.557.031.83c.01.128.021.257.037.385a10.665,10.665,0,0,0,1.3,4.017l.012.021a10.756,10.756,0,0,0,2.857,3.268l.008.006a10.671,10.671,0,0,0,12.8.072l.007,0q.335-.248.65-.522l.218-.194.03-.028.137-.131.027-.027c.021-.022.046-.046.071-.071s.032-.033.05-.05l.113-.118.2-.214c.124-.137.259-.29.4-.457l.073-.089.057-.07c.039-.049.078-.1.116-.148.062-.079.123-.161.183-.244q.073-.1.143-.2l.1-.143a10.218,10.218,0,0,0,.767-1.361q.1-.212.19-.43c.031-.073.061-.149.09-.223h-.089C419.054,306.415,419.129,306.21,419.189,306.034Z" transform="translate(-398.393 -292.087)" fill="#242424"/>
      <path id="Path_55" data-name="Path 55" d="M525.448,377.408a5.346,5.346,0,0,1-.16,1.3h-2.013V376.15H525.3A5.3,5.3,0,0,1,525.448,377.408Z" transform="translate(-509.397 -366.808)" fill="#242424"/>
      <path id="Path_56" data-name="Path 56" d="M456.9,343.321a5.369,5.369,0,1,0,.15,1.258A5.278,5.278,0,0,0,456.9,343.321Zm-5.213,4.184a2.926,2.926,0,1,1,2.644-4.184,2.714,2.714,0,0,1,.12.293c.018.051.034.1.049.153s.029.1.04.157c.007.027.012.052.017.079q.017.075.027.153a.066.066,0,0,1,0,.016c0,.024.007.049.009.073s.007.055.008.082.006.054.007.082h0s0,0,0,0c0,.027,0,.053,0,.081a.264.264,0,0,1,0,.042c0,.013,0,.028,0,.042s0,.03,0,.044a.278.278,0,0,1,0,.043c0,.058,0,.116-.01.172,0,.029-.005.057-.009.086s-.007.057-.011.084-.009.057-.014.084-.009.052-.014.078-.012.059-.019.088c-.013.054-.027.109-.043.162-.008.027-.017.053-.026.08s-.018.052-.028.078-.018.049-.027.073-.022.055-.035.081a.633.633,0,0,1-.033.075c-.01.026-.022.05-.034.074A2.926,2.926,0,0,1,451.685,347.505Z" transform="translate(-440.996 -333.979)" fill="#242424"/>
    </g>
    <path id="Path_57" data-name="Path 57" d="M558.025,351.074a7.864,7.864,0,0,1-.372-.7h2.815a1.281,1.281,0,0,1,.061.395,1.307,1.307,0,0,1-1.307,1.308C558.754,352.08,558.346,351.6,558.025,351.074Z" transform="translate(-539.954 -343.899)" fill="#242424"/>
    <path id="Path_58" data-name="Path 58" d="M561.177,412.414c-.06.176-.135.381-.23.611h-2.814c0-.009.01-.018.016-.027a.136.136,0,0,0,.011-.017l.013-.023,0-.006c.071-.112.152-.246.237-.379,0,0,0,0,0,0s0,0,0,0c.189-.3.387-.615.489-.775l2.056-.028A1.313,1.313,0,0,1,561.177,412.414Z" transform="translate(-540.381 -398.467)" fill="#242424"/>
    <path id="Path_59" data-name="Path 59" d="M559.694,343.465a1.307,1.307,0,0,1-1.307,1.308c-.468,0-.876-.476-1.2-1.006a7.824,7.824,0,0,1-.372-.7c-.012-.023-.023-.046-.033-.068l-.039-.082c-.24-.522.919-.764,1.641-.764a1.307,1.307,0,0,1,1.138.665,1.287,1.287,0,0,1,.1.23.1.1,0,0,1,.006.019A1.285,1.285,0,0,1,559.694,343.465Z" transform="translate(-539.119 -336.593)" fill="#242424"/>
    <path id="Path_60" data-name="Path 60" d="M561.118,408.408a1.282,1.282,0,0,1-.061.394.02.02,0,0,1,0,.008c-.005.019-.011.037-.018.054a.081.081,0,0,1-.007.017c-.006.016-.014.036-.026.061l-.01.022a1.237,1.237,0,0,1-.111.194,1.283,1.283,0,0,1-.193.223,1.319,1.319,0,0,1-.895.348,3.192,3.192,0,0,1-1.709-.741.09.09,0,0,1-.023-.039v0l.008-.012a.308.308,0,0,1,.016-.027l.025-.04,0-.006c.071-.112.152-.246.237-.379,0,0,0,0,0,0s0,0,0,0c.189-.3.387-.615.489-.775l.036-.057s0-.006.005-.008l.028-.044a.676.676,0,0,1,.055-.052h0l.034-.03.059-.047c.027-.02.058-.042.093-.065l.047-.029c.029-.017.06-.034.093-.051l.021-.01.044-.021.016-.007a.2.2,0,0,1,.033-.013c.017-.008.035-.014.053-.021q.055-.02.117-.037l.028-.007a.991.991,0,0,1,.1-.021l.053-.008.017,0,.065-.006c.029,0,.059,0,.09,0s.087,0,.132.007a.507.507,0,0,1,.056.007.761.761,0,0,1,.1.017.585.585,0,0,1,.06.013,1.087,1.087,0,0,1,.113.032l.027.009a.481.481,0,0,1,.093.046l0,0,.056.039c.018.012.033.024.05.038l.008.005.039.033c.013.011.024.022.037.033s.032.031.048.047.038.041.056.062l.034.043c.019.024.038.051.056.078a1.312,1.312,0,0,1,.217.647c0,.014,0,.028,0,.042v.007A.341.341,0,0,1,561.118,408.408Z" transform="translate(-540.318 -394.378)" fill="#242424"/>
    <path id="Path_61" data-name="Path 61" d="M533.02,408.367v.007a2.079,2.079,0,0,1-.06.429.02.02,0,0,1,0,.008l-.009.033a.217.217,0,0,1-.009.021.077.077,0,0,1-.007.017c-.006.016-.014.036-.026.061l-.01.022c-.05.117-.144.319-.3.624-.134.26-.315.594-.552,1.01-.068.119-.14.236-.215.351l-.1.143q-.07.1-.143.2c-.06.083-.121.166-.183.244-.038.05-.077.1-.116.148l-.057.07-.073.089c-.138.167-.272.32-.4.457l-.2.215-.113.118q-.027.025-.05.05c-.026.026-.05.049-.071.071l-.027.027-.137.131-.03.028-.218.195-3.364,3-.1.09,1.728-1.857,1.289-1.386a.521.521,0,0,0,.1-.551l-.265-.646a.515.515,0,0,1-.03-.295c.079-.414.308-1.575.493-2.138a1.707,1.707,0,0,1,.094-.238l.011-.019c.007-.012.014-.024.023-.038.017-.03.037-.062.061-.1l.005-.009v0l.008-.012c0-.009.01-.018.016-.027l.024-.04,0-.006c.071-.112.152-.246.237-.379,0,0,0,0,0,0s0,0,0,0c.189-.3.387-.615.489-.775l.036-.057.006-.008a.533.533,0,0,1,.082-.1h0l.034-.03.059-.047c.027-.02.058-.042.093-.065l.047-.029c.029-.017.06-.034.093-.051l.021-.01.044-.021.016-.007a.2.2,0,0,1,.033-.013c.017-.008.034-.014.053-.021q.055-.02.117-.037l.028-.007a.994.994,0,0,1,.1-.021l.053-.008.017,0,.064-.006c.029,0,.059,0,.09,0s.087,0,.132.007a.511.511,0,0,1,.056.007.755.755,0,0,1,.1.017.581.581,0,0,1,.06.013,1.072,1.072,0,0,1,.113.032l.012,0,.014.006a.481.481,0,0,1,.093.046l0,0c.019.012.038.026.056.039s.033.024.05.038l.008.005.039.033c.013.011.024.022.037.033s.032.031.048.047.038.041.056.062l.034.043c.019.024.038.051.056.078a1.313,1.313,0,0,1,.217.647C533.019,408.339,533.02,408.353,533.02,408.367Z" transform="translate(-512.221 -394.378)" fill="#242424"/>
  </g>
</svg>
