<svg id="delivery_boy" xmlns="http://www.w3.org/2000/svg" width="18" height="18" viewBox="0 0 18 18">
  <path id="Path_316732" data-name="Path 316732" d="M1.885,16H6.017a.892.892,0,0,1,.885.9v3.3a.892.892,0,0,1-.885.9H1.886A.892.892,0,0,1,1,20.2V16.9a.892.892,0,0,1,.885-.9Z" transform="translate(-1 -11.804)" fill="#33bd8c"/>
  <ellipse id="Ellipse_12851" data-name="Ellipse 12851" cx="1.687" cy="1.714" rx="1.687" ry="1.714" transform="translate(7.875 0)" fill="#33bd8c"/>
  <path id="Path_316733" data-name="Path 316733" d="M12,35.151a1.788,1.788,0,0,0,.5,1.244h4.8V35.15a.3.3,0,0,0-.294-.3H12.3A.3.3,0,0,0,12,35.151Z" transform="translate(-8.756 -25.005)" fill="#33bd8c"/>
  <path id="Path_316734" data-name="Path 316734" d="M25.917,24.477a2.4,2.4,0,0,0-2.456-1.8,2.14,2.14,0,0,0,.071-.537,1.783,1.783,0,0,0-.783-1.446,3.612,3.612,0,0,1-1.179-2.655h.565a.889.889,0,0,0,.883-.894v-.6a.889.889,0,0,0-.883-.894H20.116a4.64,4.64,0,0,1-2.526-1.418l-.019-.021a1.115,1.115,0,0,0-.6-1.143,1.059,1.059,0,0,0-.933,0,1.088,1.088,0,0,0-.578.744l-.847,4.109a.905.905,0,0,0,.15.707.878.878,0,0,0,.617.363l1.451.163a.3.3,0,0,1,.262.313l-.228,3.928a1.6,1.6,0,0,1-.436-1.737h-4.51c-.476.8-1.237,2.3-.929,3.278a1.2,1.2,0,0,0,.77.786,1.083,1.083,0,0,0,.41.045,1.888,1.888,0,0,0,3.771,0H21a.37.37,0,0,0,.258-.127,2.12,2.12,0,0,0,.173.51.292.292,0,0,0,.506.042c.035-.05.072-.1.111-.147a1.911,1.911,0,0,0,1.255,1.521,1.867,1.867,0,0,0,1.91-.422,1.938,1.938,0,0,0,.519-1.914.294.294,0,0,0,.258-.322,2.36,2.36,0,0,0-.077-.446ZM14.059,26.97a1.308,1.308,0,0,1-1.294-1.189h2.588a1.308,1.308,0,0,1-1.294,1.189ZM19.78,23.7H18.634l.507-4.867a.9.9,0,0,0-.568-.93l-1.446-.548a.3.3,0,0,1-.184-.344l.22-.964a5,5,0,0,0,2.617,1.089Zm4.3,3.362A1.29,1.29,0,0,1,23,26.691a1.335,1.335,0,0,1-.383-1.09l.09-.114a3.229,3.229,0,0,1,2.265-.453l.07.055a1.337,1.337,0,0,1,.039,1.246A1.3,1.3,0,0,1,24.084,27.058Z" transform="translate(-7.995 -9.684)" fill="#33bd8c"/>
</svg>
