<svg xmlns="http://www.w3.org/2000/svg" width="34.261" height="31" viewBox="0 0 34.261 31">
  <g id="profle_sidemenu_order" transform="translate(-94 -306.377)">
    <circle id="Ellipse_11126" data-name="Ellipse 11126" cx="15.5" cy="15.5" r="15.5" transform="translate(97.261 306.377)" fill="#dcf9ee" opacity="0"/>
    <g id="Group_149650" data-name="Group 149650" transform="translate(94 310.374)">
      <path id="Path_317629" data-name="Path 317629" d="M13.534,11.733a.9.9,0,0,0-.9.9v3.609a.9.9,0,0,1-.9.9H9.023V3.612A1.819,1.819,0,0,0,7.794,1.9l-.267-.089h4.2a.9.9,0,0,1,.9.9V5.417a.9.9,0,1,0,1.8,0V2.71A2.71,2.71,0,0,0,11.73,0H2.03a.706.706,0,0,0-.1.02C1.89.019,1.849,0,1.8,0A1.806,1.806,0,0,0,0,1.808V18.048a1.819,1.819,0,0,0,1.229,1.715l5.43,1.81a1.869,1.869,0,0,0,.559.084,1.806,1.806,0,0,0,1.8-1.8v-.9h2.707a2.71,2.71,0,0,0,2.707-2.707V12.635a.9.9,0,0,0-.9-.9Zm0,0" fill="#fff"/>
      <path id="Path_317630" data-name="Path 317630" d="M286.993,110.54l-3.609-3.609a.9.9,0,0,0-1.54.638v2.707h-3.609a.9.9,0,1,0,0,1.8h3.609v2.707a.9.9,0,0,0,1.54.638l3.609-3.609A.9.9,0,0,0,286.993,110.54Zm0,0" transform="translate(-265.602 -102.152)" fill="#fff"/>
    </g>
  </g>
</svg>
