<svg xmlns="http://www.w3.org/2000/svg" width="34.261" height="31" viewBox="0 0 34.261 31">
  <g id="profle_sidemenu_order" transform="translate(-94 -306.377)">
    <circle id="Ellipse_11126" data-name="Ellipse 11126" cx="15.5" cy="15.5" r="15.5" transform="translate(97.261 306.377)" fill="#dcf9ee"/>
    <g id="Group_148705" data-name="Group 148705" transform="translate(94 306.504)">
      <path id="Path_316839" data-name="Path 316839" d="M37.863,17.685H41.5v1.977a.624.624,0,1,0,1.248,0V17.685h6.536v1.977a.624.624,0,0,0,1.248,0V17.685h3.641a.778.778,0,0,1,.777.709l.587,6.387a8.171,8.171,0,0,0-.845-.044,8.078,8.078,0,0,0-7.459,11.17H37.151a1.528,1.528,0,0,1-1.521-1.667l1.456-15.846A.778.778,0,0,1,37.863,17.685Zm3.642-.1V15.357a4.516,4.516,0,0,1,9.032,0v2.225H49.289V15.357a3.268,3.268,0,0,0-6.536,0v2.225ZM54.7,26.138a6.673,6.673,0,1,0,6.673,6.673A6.673,6.673,0,0,0,54.7,26.138Zm-3.262,7.068,2,1.833a.7.7,0,0,0,.976-.028L57.97,31.6A.7.7,0,0,0,57,30.593l-3.1,2.972-1.513-1.389a.7.7,0,0,0-.947,1.03Z" transform="translate(-35.622 -10.841)" fill="#33bd8c" fill-rule="evenodd"/>
    </g>
  </g>
</svg>
