<svg xmlns="http://www.w3.org/2000/svg" width="34.261" height="31" viewBox="0 0 34.261 31">
  <g id="profle_sidemenu_order" transform="translate(-94 -306.377)">
    <circle id="Ellipse_11126" data-name="Ellipse 11126" cx="15.5" cy="15.5" r="15.5" transform="translate(97.261 306.377)" fill="#dcf9ee"/>
    <g id="Group_149329" data-name="Group 149329" transform="translate(94 292.387)">
      <path id="Path_317387" data-name="Path 317387" d="M25.62,28.4l-2.789-4.107,2.789-4.107a.754.754,0,0,0-.389-1.134l-9.1-3.017a.75.75,0,0,0-.866.3l-2.39,3.584-2.39-3.584a.75.75,0,0,0-.866-.3l-9.1,3.017a.754.754,0,0,0-.389,1.134l2.789,4.107L.126,28.4A.754.754,0,0,0,.515,29.53l9.1,3.017a.754.754,0,0,0,.866-.3l2.39-3.584,2.39,3.584a.754.754,0,0,0,.866.3l9.1-3.017A.754.754,0,0,0,25.62,28.4ZM12.873,26.511,6.206,24.288l6.667-2.222,6.667,2.222Z" fill="#33bd8c"/>
      <path id="Path_317388" data-name="Path 317388" d="M74.541,324.731a2.261,2.261,0,0,1-2.6-.891l-1.134-1.7-1.134,1.7a2.26,2.26,0,0,1-2.6.89L61,322.707v4.4a.754.754,0,0,0,.516.715l9.047,3.016a.676.676,0,0,0,.082.023h0a.788.788,0,0,0,.16.017.771.771,0,0,0,.242-.04l9.048-3.017a.754.754,0,0,0,.516-.715v-4.4Z" transform="translate(-57.935 -290.753)" fill="#33bd8c"/>
    </g>
  </g>
</svg>
