<svg xmlns="http://www.w3.org/2000/svg" width="34.261" height="31" viewBox="0 0 34.261 31">
  <g id="profle_sidemenu_order" transform="translate(-94 -306.377)">
    <circle id="Ellipse_11126" data-name="Ellipse 11126" cx="15.5" cy="15.5" r="15.5" transform="translate(97.261 306.377)" fill="#dcf9ee"/>
    <path id="Path_317390" data-name="Path 317390" d="M18.241,22.543a7.425,7.425,0,0,0-3.41.818A7.565,7.565,0,0,0,12.874,24.8a7.565,7.565,0,0,0-1.957-1.443,7.425,7.425,0,0,0-3.41-.818A7.514,7.514,0,0,0,0,30.049C0,32.98,1.548,36.094,4.6,39.3a44.494,44.494,0,0,0,7.84,6.315l.432.279.432-.279a44.492,44.492,0,0,0,7.84-6.315c3.053-3.209,4.6-6.322,4.6-9.254A7.514,7.514,0,0,0,18.241,22.543Z" transform="translate(94 287.834)" fill="#33bd8c"/>
  </g>
</svg>
