<svg xmlns="http://www.w3.org/2000/svg" width="34.261" height="31" viewBox="0 0 34.261 31">
  <g id="profle_sidemenu_order" transform="translate(-94 -306.377)">
    <circle id="Ellipse_11126" data-name="Ellipse 11126" cx="15.5" cy="15.5" r="15.5" transform="translate(97.261 306.377)" fill="#dcf9ee"/>
    <g id="Group_149334" data-name="Group 149334" transform="translate(85.386 283.462)">
      <path id="Path_317394" data-name="Path 317394" d="M23.547,39.711a8.423,8.423,0,0,0-14.931,4.84.469.469,0,0,0,.471.5H23.978a7.74,7.74,0,0,1-.432-5.339Zm7.9,4.674v.49a.471.471,0,0,1-.942,0V44.4a1.57,1.57,0,0,1-1-.623.47.47,0,1,1,.762-.552.6.6,0,0,0,.493.254h.339a.607.607,0,0,0,0-1.214h-.241a1.549,1.549,0,0,1-.351-3.058v-.49a.471.471,0,1,1,.942,0v.471a1.569,1.569,0,0,1,1,.623.47.47,0,0,1-.762.552.6.6,0,0,0-.493-.254h-.339a.607.607,0,1,0,0,1.214h.241a1.549,1.549,0,0,1,.351,3.058Zm-.471-9.357A6.771,6.771,0,1,0,37.744,41.8,6.771,6.771,0,0,0,30.973,35.028Zm0,11.947A5.176,5.176,0,1,1,36.15,41.8,5.176,5.176,0,0,1,30.973,46.975Zm-13.94-20.06a4.557,4.557,0,1,1-4.557,4.557,4.557,4.557,0,0,1,4.557-4.557Z" fill="#33bd8c" fill-rule="evenodd"/>
    </g>
  </g>
</svg>
