<svg xmlns="http://www.w3.org/2000/svg" width="33.497" height="31" viewBox="0 0 33.497 31">
  <g id="profle_sidemenu_order" transform="translate(-94.764 -306.377)">
    <circle id="Ellipse_11126" data-name="Ellipse 11126" cx="15.5" cy="15.5" r="15.5" transform="translate(97.261 306.377)" fill="#dcf9ee"/>
    <g id="Group_149333" data-name="Group 149333" transform="translate(94.739 309.377)">
      <path id="Path_317393" data-name="Path 317393" d="M13.249,0a3.015,3.015,0,0,0-2.977,2.977,3.015,3.015,0,0,0,2.977,2.977,2.977,2.977,0,0,0,0-5.954ZM16.5,5.954a4.365,4.365,0,0,1-3.25,1.464,4.472,4.472,0,0,1-3.3-1.464A4.358,4.358,0,0,0,8.809,8.882v.732a.732.732,0,0,0,.732.732H16.91a.732.732,0,0,0,.732-.732V8.882A4.358,4.358,0,0,0,16.5,5.954ZM7.1,22.468l-3.73-7.479a1.464,1.464,0,0,0-1.96-.658l-.975.483A.733.733,0,0,0,.1,15.8l4.392,8.784a.733.733,0,0,0,.98.329l.962-.477A1.464,1.464,0,0,0,7.1,22.468ZM24.41,12.088a1.459,1.459,0,0,0-1.932.19l-4,4.919a1.769,1.769,0,0,1-1.083.468H13.981a.732.732,0,1,1,0-1.464H16.91a1.464,1.464,0,0,0,0-2.928H13.074c-.365,0-.547-.231-.834-.483A5.093,5.093,0,0,0,7.7,11.678,5.34,5.34,0,0,0,5.448,12.8l-.022-.018-1.059.932,4.161,8.343H16.91A4.41,4.41,0,0,0,20.423,20.3l4.294-6.149a1.475,1.475,0,0,0-.307-2.064Z" transform="translate(0)" fill="#33bd8c"/>
    </g>
  </g>
</svg>
