<svg xmlns="http://www.w3.org/2000/svg" width="34" height="31" viewBox="0 0 34 31">
  <g id="profle_sidemenu_order" transform="translate(-94.261 -306.377)">
    <circle id="Ellipse_11126" data-name="Ellipse 11126" cx="15.5" cy="15.5" r="15.5" transform="translate(97.261 306.377)" fill="#dcf9ee"/>
    <g id="Group_149330" data-name="Group 149330" transform="translate(90.751 306.117)">
      <path id="Path_317389" data-name="Path 317389" d="M13.132,23.766,9.965,29.253a1,1,0,0,1-.862.5H8.971a1.011,1.011,0,0,1-.835-.729L7.42,26.363l-2.664.716a.994.994,0,0,1-1.113-1.458l2.863-4.957a6.269,6.269,0,0,0,1.193.6,6.71,6.71,0,0,0,3.168,2.213,6.432,6.432,0,0,0,2.068.331h.186Zm9.874-3.128a6.269,6.269,0,0,1-1.193.6,6.72,6.72,0,0,1-5.249,2.545H16.38l3.168,5.487a1,1,0,0,0,.862.5h.133a1.011,1.011,0,0,0,.835-.729l.716-2.664,2.664.716a1,1,0,0,0,1.047-.358.981.981,0,0,0,.066-1.1l-2.863-4.957Zm2.319-9.119a4.684,4.684,0,0,1-1.153,3.075,4.666,4.666,0,0,1-3.592,4.93,4.686,4.686,0,0,1-2.558,2.028,4.767,4.767,0,0,1-3.26-.133,4.7,4.7,0,0,1-5.819-1.882,4.632,4.632,0,0,1-2.717-1.816,4.767,4.767,0,0,1-.888-3.141A4.75,4.75,0,0,1,4.2,11.519,4.684,4.684,0,0,1,5.352,8.444a4.666,4.666,0,0,1,3.592-4.93A4.686,4.686,0,0,1,11.5,1.486a4.752,4.752,0,0,1,3.26.133A4.7,4.7,0,0,1,20.581,3.5,4.632,4.632,0,0,1,23.3,5.316a4.767,4.767,0,0,1,.888,3.141A4.75,4.75,0,0,1,25.326,11.519Zm-6.972-.9a.993.993,0,0,0-.808-.676l-1.312-.186-.583-1.193a1.043,1.043,0,0,0-1.789,0l-.583,1.193-1.312.186a.994.994,0,0,0-.557,1.7l.954.928-.225,1.312a.979.979,0,0,0,.4.968,1,1,0,0,0,1.047.08l1.18-.623,1.18.623a.967.967,0,0,0,.464.119.99.99,0,0,0,.981-1.153l-.225-1.312.954-.928a1.006,1.006,0,0,0,.252-1.021Z" transform="translate(0 0)" fill="#33bd8c"/>
    </g>
  </g>
</svg>
