<svg id="resturant_location" xmlns="http://www.w3.org/2000/svg" width="21.922" height="26.35" viewBox="0 0 21.922 26.35">
  <g id="Group_146255" data-name="Group 146255" transform="translate(0 0)">
    <g id="Group_33" data-name="Group 33" transform="translate(0)">
      <path id="Path_49" data-name="Path 49" d="M422.616,412.449c-.063.185-.143.4-.243.644-.061.149-.129.306-.2.471a12.191,12.191,0,0,1-3.373,4.385l-.132.124-.007,0c-.912.851-1.91,1.758-2.853,2.6l-.105.095c-2.029,1.818-3.767,3.323-3.767,3.323l-6.762-6.1L405.16,418l-.875-.791a13.542,13.542,0,0,1-2.136-2.654c0-.007-.008-.015-.013-.022A8.81,8.81,0,0,1,401,411.78h2.783s2.2,6.018,8.238,5.793a8.715,8.715,0,0,0,3.629-.908c.165-.083.324-.17.479-.261s.3-.185.449-.282c.112-.076.222-.155.329-.236l.073-.054c.02-.015.041-.03.061-.047l.009-.007.032-.025c.037-.029.074-.057.11-.088l.095-.078c.032-.025.063-.052.094-.079l.015-.014c.1-.089.205-.18.3-.272.016-.015.034-.031.05-.047l.1-.094.061-.061q.083-.083.162-.165l.116-.124c.037-.04.073-.08.109-.121a.039.039,0,0,1,.007-.007l.1-.121c.089-.1.175-.207.255-.31.04-.05.078-.1.116-.15s.076-.1.112-.15.076-.105.114-.158l.108-.156c.064-.095.125-.189.183-.279,0-.007.008-.014.012-.02s.015-.026.025-.04c.022-.035.044-.07.064-.1l.006-.009v0a.077.077,0,0,1,.008-.013h0l.027-.046.014-.025,0-.006c.075-.118.16-.259.249-.4,0,0,0,0,0,0s0,0,0,0c.2-.317.408-.648.515-.816l2.167-.029A1.385,1.385,0,0,1,422.616,412.449Z" transform="translate(-400.697 -397.749)" fill="#33bd8c"/>
      <path id="Path_50" data-name="Path 50" d="M520.638,376.151v2.7h-2.481a3.091,3.091,0,0,0,.024-2.7Z" transform="translate(-504.129 -366.305)" fill="#33bd8c"/>
      <path id="Path_51" data-name="Path 51" d="M457.469,343.543a5.651,5.651,0,0,0-11.146,1.326,5.642,5.642,0,0,0,5.652,5.652,5.648,5.648,0,0,0,5.653-5.652A5.564,5.564,0,0,0,457.469,343.543Zm-5.494,4.41a3.084,3.084,0,1,1,2.786-4.41,2.863,2.863,0,0,1,.126.309c.019.054.036.108.052.162s.03.109.042.165c.007.028.013.055.018.083q.018.079.028.162a.068.068,0,0,1,0,.016c0,.026.007.052.009.077s.007.057.008.087.006.057.007.087h0s0,0,0,0c0,.028,0,.056,0,.086a.278.278,0,0,1,0,.044c0,.014,0,.029,0,.044s0,.032,0,.047a.293.293,0,0,1,0,.046c0,.061,0,.122-.011.182,0,.03-.006.06-.009.09s-.007.06-.012.089-.009.06-.015.089-.009.055-.015.082-.013.062-.02.093c-.014.057-.028.115-.046.171-.008.028-.017.056-.027.084s-.019.055-.029.082-.019.052-.028.077-.023.057-.036.085a.672.672,0,0,1-.035.079c-.011.027-.023.053-.036.078A3.084,3.084,0,0,1,451.974,347.953Z" transform="translate(-440.709 -333.697)" fill="#33bd8c"/>
      <path id="Path_52" data-name="Path 52" d="M457.469,343.543a5.651,5.651,0,0,0-11.146,1.326,5.642,5.642,0,0,0,5.652,5.652,5.648,5.648,0,0,0,5.653-5.652A5.564,5.564,0,0,0,457.469,343.543Zm-5.494,4.41a3.084,3.084,0,1,1,2.786-4.41,2.863,2.863,0,0,1,.126.309c.019.054.036.108.052.162s.03.109.042.165c.007.028.013.055.018.083q.018.079.028.162a.068.068,0,0,1,0,.016c0,.026.007.052.009.077s.007.057.008.087.006.057.007.087h0s0,0,0,0c0,.028,0,.056,0,.086a.278.278,0,0,1,0,.044c0,.014,0,.029,0,.044s0,.032,0,.047a.293.293,0,0,1,0,.046c0,.061,0,.122-.011.182,0,.03-.006.06-.009.09s-.007.06-.012.089-.009.06-.015.089-.009.055-.015.082-.013.062-.02.093c-.014.057-.028.115-.046.171-.008.028-.017.056-.027.084s-.019.055-.029.082-.019.052-.028.077-.023.057-.036.085a.672.672,0,0,1-.035.079c-.011.027-.023.053-.036.078A3.084,3.084,0,0,1,451.974,347.953Z" transform="translate(-440.709 -333.697)" fill="#33bd8c"/>
      <path id="Path_53" data-name="Path 53" d="M530.123,419.027q-.116.242-.246.476c-.011.019-.021.037-.033.056-.074.13-.15.258-.231.383a8.6,8.6,0,0,1-3.541,3.133c.165-.083.324-.17.479-.261s.3-.185.448-.282q.169-.114.329-.235l.073-.054c.02-.015.041-.03.061-.047l.009-.007.032-.025c.037-.029.074-.057.11-.088l.095-.078c.032-.025.063-.051.094-.079l.015-.014c.1-.089.2-.18.3-.272.016-.015.034-.03.05-.047l.1-.094.061-.061q.083-.083.162-.165l.116-.124c.038-.04.073-.08.109-.121a.042.042,0,0,1,.007-.007c.036-.041.071-.081.1-.121.089-.1.175-.207.255-.31.041-.05.08-.1.116-.15s.076-.1.112-.15.076-.106.114-.158l.108-.156c.064-.095.125-.189.183-.279,0-.007.008-.014.012-.02s.015-.026.025-.04c.022-.035.044-.07.064-.1l.006-.009v0a.075.075,0,0,1,.008-.013h0l.027-.046.014-.025,0-.006C529.949,419.308,530.034,419.168,530.123,419.027Z" transform="translate(-511.118 -404.159)" fill="#33bd8c"/>
      <path id="Path_54" data-name="Path 54" d="M420.311,306.787a1.383,1.383,0,0,0-.228-.682l-2.167.029c-.108.169-.316.5-.515.816,0,0,0,0,0,0s0,0,0,0c-.089.141-.174.281-.25.4l0,.006-.014.025a.14.14,0,0,1-.012.018c-.006.009-.012.019-.016.028l-.008.013v0l-.006.009c-.02.034-.042.069-.064.1-.009.014-.018.027-.025.04l-.012.02c-.057.09-.118.184-.183.279l-.108.156c-.037.053-.075.105-.114.158s-.074.1-.112.15-.076.1-.116.15c-.081.1-.166.206-.255.31l-.1.121a.044.044,0,0,0-.007.007c-.036.041-.071.081-.109.121l-.116.124q-.079.083-.162.165l-.061.061-.1.094c-.016.016-.034.032-.05.047-.1.091-.2.183-.3.272l-.015.014c-.03.027-.062.054-.094.078l-.095.078c-.036.03-.073.059-.11.088l-.032.025-.009.007c-.02.016-.041.032-.061.047l-.073.054c-.107.081-.217.159-.329.235-.144.1-.294.192-.449.282s-.314.178-.479.261a8.577,8.577,0,1,1,3.664-12.16l.043.071c.139.238.268.483.384.734.339.559.768,1.06,1.261,1.06a1.378,1.378,0,0,0,1.378-1.379,1.356,1.356,0,0,0-.064-.416h0a.142.142,0,0,0-.008-.02c-.035-.081-.07-.163-.108-.242a11.269,11.269,0,0,0-21.419,3.281c-.023.183-.042.368-.055.553-.022.287-.033.575-.033.867s.011.587.033.875c.011.135.022.271.039.405a11.239,11.239,0,0,0,1.367,4.234c0,.007.008.015.013.022a11.336,11.336,0,0,0,3.011,3.445l.008.006a11.247,11.247,0,0,0,13.487.076l.007,0q.353-.262.685-.551l.23-.2.032-.029.144-.138.028-.028c.022-.023.048-.048.075-.075s.034-.035.053-.053l.119-.124.212-.226c.131-.144.273-.306.418-.481l.077-.094.06-.074c.041-.051.082-.1.122-.156.066-.083.13-.17.193-.258q.077-.105.151-.214l.1-.151a10.77,10.77,0,0,0,.808-1.435q.105-.223.2-.453c.033-.077.064-.157.095-.235h-.094C420.168,307.188,420.248,306.972,420.311,306.787Z" transform="translate(-398.393 -292.087)" fill="#33bd8c"/>
      <path id="Path_55" data-name="Path 55" d="M525.565,377.476a5.634,5.634,0,0,1-.169,1.373h-2.122v-2.7h2.133A5.587,5.587,0,0,1,525.565,377.476Z" transform="translate(-508.648 -366.304)" fill="#33bd8c"/>
      <path id="Path_56" data-name="Path 56" d="M457.469,343.543a5.651,5.651,0,0,0-11.146,1.326,5.642,5.642,0,0,0,5.652,5.652,5.648,5.648,0,0,0,5.653-5.652A5.564,5.564,0,0,0,457.469,343.543Zm-5.494,4.41a3.084,3.084,0,1,1,2.786-4.41,2.863,2.863,0,0,1,.126.309c.019.054.036.108.052.162s.03.109.042.165c.007.028.013.055.018.083q.018.079.028.162a.068.068,0,0,1,0,.016c0,.026.007.052.009.077s.007.057.008.087.006.057.007.087h0s0,0,0,0c0,.028,0,.056,0,.086a.278.278,0,0,1,0,.044c0,.014,0,.029,0,.044s0,.032,0,.047a.293.293,0,0,1,0,.046c0,.061,0,.122-.011.182,0,.03-.006.06-.009.09s-.007.06-.012.089-.009.06-.015.089-.009.055-.015.082-.013.062-.02.093c-.014.057-.028.115-.046.171-.008.028-.017.056-.027.084s-.019.055-.029.082-.019.052-.028.077-.023.057-.036.085a.672.672,0,0,1-.035.079c-.011.027-.023.053-.036.078A3.084,3.084,0,0,1,451.974,347.953Z" transform="translate(-440.709 -333.697)" fill="#33bd8c"/>
    </g>
    <path id="Path_57" data-name="Path 57" d="M558.045,351.111a8.312,8.312,0,0,1-.392-.734h2.967a1.356,1.356,0,0,1,.064.416,1.378,1.378,0,0,1-1.377,1.379C558.814,352.171,558.384,351.67,558.045,351.111Z" transform="translate(-538.999 -343.55)" fill="#33bd8c"/>
    <path id="Path_58" data-name="Path 58" d="M561.341,412.449c-.063.185-.143.4-.242.644h-2.966c0-.009.011-.019.016-.028a.155.155,0,0,0,.012-.018l.014-.025,0-.006c.075-.118.16-.259.25-.4,0,0,0,0,0,0s0,0,0,0c.2-.317.408-.648.515-.816l2.167-.029A1.384,1.384,0,0,1,561.341,412.449Z" transform="translate(-539.423 -397.749)" fill="#33bd8c"/>
    <path id="Path_59" data-name="Path 59" d="M559.855,343.536a1.378,1.378,0,0,1-1.378,1.379c-.493,0-.923-.5-1.261-1.06a8.243,8.243,0,0,1-.392-.734c-.013-.025-.025-.048-.035-.071l-.041-.087c-.253-.551.969-.8,1.73-.8a1.377,1.377,0,0,1,1.2.7,1.362,1.362,0,0,1,.108.242.119.119,0,0,1,.006.02A1.357,1.357,0,0,1,559.855,343.536Z" transform="translate(-538.17 -336.292)" fill="#33bd8c"/>
    <path id="Path_60" data-name="Path 60" d="M561.283,408.475a1.35,1.35,0,0,1-.065.416.021.021,0,0,1,0,.008c-.006.02-.012.039-.019.057a.089.089,0,0,1-.007.018c-.006.016-.015.038-.027.064l-.01.023a1.312,1.312,0,0,1-.117.2,1.35,1.35,0,0,1-.2.235,1.39,1.39,0,0,1-.943.367,3.365,3.365,0,0,1-1.8-.781.094.094,0,0,1-.025-.041v0l.008-.013c0-.009.01-.019.016-.028l.026-.042,0-.006c.075-.118.16-.259.249-.4,0,0,0,0,0,0s0,0,0,0c.2-.317.408-.648.515-.816.014-.023.027-.043.037-.06s0-.006.006-.008l.029-.047a.712.712,0,0,1,.057-.055h0l.036-.032.062-.049c.028-.021.061-.045.1-.068l.049-.03c.031-.018.063-.036.1-.054l.022-.011c.015-.008.03-.015.047-.022l.017-.007a.215.215,0,0,1,.035-.014c.018-.008.036-.015.056-.022.039-.014.08-.027.123-.039l.029-.007a1.042,1.042,0,0,1,.109-.022l.056-.008.018,0,.068-.006c.031,0,.062,0,.095,0s.091,0,.139.007a.551.551,0,0,1,.059.007.8.8,0,0,1,.1.018.614.614,0,0,1,.063.014,1.141,1.141,0,0,1,.12.034l.028.009a.508.508,0,0,1,.1.048l0,0c.02.013.04.027.059.041s.035.026.053.04l.008.006.041.035c.014.012.026.023.039.035s.034.033.05.049.04.043.059.066l.036.046c.02.026.04.054.059.082a1.383,1.383,0,0,1,.229.682c0,.015,0,.029,0,.045v.007C561.283,408.451,561.283,408.464,561.283,408.475Z" transform="translate(-539.361 -393.688)" fill="#33bd8c"/>
    <path id="Path_61" data-name="Path 61" d="M533.374,408.432v.007a2.185,2.185,0,0,1-.063.452.021.021,0,0,1,0,.008l-.009.035a.216.216,0,0,1-.009.022.08.08,0,0,1-.007.018c-.006.016-.015.038-.027.064l-.011.023c-.053.123-.152.336-.317.658-.142.274-.332.626-.582,1.065-.072.125-.148.248-.226.37l-.1.151q-.074.109-.151.214c-.063.088-.128.175-.193.258-.04.053-.081.1-.122.156l-.06.074-.077.094c-.145.176-.287.337-.418.481l-.212.226-.119.124c-.019.018-.036.035-.053.053s-.053.052-.075.075l-.028.028-.144.138-.032.029-.229.2-3.546,3.158-.105.095,1.821-1.957,1.359-1.461a.549.549,0,0,0,.107-.581l-.279-.681a.542.542,0,0,1-.032-.31c.083-.437.324-1.66.52-2.254a1.79,1.79,0,0,1,.1-.251c0-.007.008-.014.012-.02s.015-.026.025-.04c.018-.032.039-.066.064-.1l.006-.009v0a.074.074,0,0,1,.008-.013c0-.009.011-.019.016-.028l.026-.042,0-.006c.075-.118.16-.259.25-.4,0,0,0,0,0,0s0,0,0,0c.2-.317.408-.648.515-.816l.037-.06s0-.006.006-.008a.558.558,0,0,1,.087-.1h0l.036-.032.062-.049c.028-.021.061-.045.1-.068l.049-.03c.03-.018.063-.036.1-.054l.022-.011.047-.022.016-.007a.223.223,0,0,1,.035-.014c.018-.008.036-.015.056-.022q.058-.021.123-.039l.029-.007a1.048,1.048,0,0,1,.109-.022l.056-.008.018,0,.068-.006c.03,0,.062,0,.095,0s.091,0,.139.007a.552.552,0,0,1,.059.007.794.794,0,0,1,.1.018.6.6,0,0,1,.063.014,1.127,1.127,0,0,1,.119.034l.013,0,.015.006a.507.507,0,0,1,.1.048l0,0c.02.013.04.027.059.041s.035.026.053.04l.008.006.041.035c.014.012.026.023.039.035s.034.033.05.049.04.043.059.066l.036.046c.02.026.04.054.059.082a1.384,1.384,0,0,1,.228.682C533.373,408.4,533.374,408.417,533.374,408.432Z" transform="translate(-511.453 -393.688)" fill="#33bd8c"/>
  </g>
</svg>
