<svg id="schedule" xmlns="http://www.w3.org/2000/svg" width="29" height="29" viewBox="0 0 29 29">
  <path id="Path_317190" data-name="Path 317190" d="M26.1,2.9H24.65V1.45a1.45,1.45,0,0,0-2.9,0V2.9H7.25V1.45A1.37,1.37,0,0,0,5.8,0,1.37,1.37,0,0,0,4.35,1.45V2.9H1.45A1.453,1.453,0,0,0,0,4.35v20.3A1.453,1.453,0,0,0,1.45,26.1H10.3A11.542,11.542,0,0,1,27.55,11.31V4.35A1.559,1.559,0,0,0,26.1,2.9Z" fill="#242424"/>
  <path id="Path_317191" data-name="Path 317191" d="M213.5,204.8a8.7,8.7,0,1,0,8.7,8.7A8.726,8.726,0,0,0,213.5,204.8Zm2.9,10.15h-2.9a1.37,1.37,0,0,1-1.45-1.45v-4.35a1.45,1.45,0,1,1,2.9,0v2.9h1.45a1.45,1.45,0,1,1,0,2.9Z" transform="translate(-193.2 -193.2)" fill="#242424"/>
</svg>
