<svg xmlns="http://www.w3.org/2000/svg" width="153.015" height="42.307" viewBox="0 0 153.015 42.307">
  <g id="header_logo_white" transform="translate(-147.413 -318)">
    <g id="Group_34" data-name="Group 34" transform="translate(142.286 318.85)">
      <g id="Group_32" data-name="Group 32" transform="translate(51.978 6.127)">
        <g id="Group_31" data-name="Group 31" transform="translate(0 0)">
          <g id="Group_30" data-name="Group 30">
            <g id="Group_29" data-name="Group 29">
              <path id="Path_45" data-name="Path 45" d="M223.1,540.746a2,2,0,0,0-.686-.365,2.645,2.645,0,0,0-.751-.107,2.529,2.529,0,0,0-.761.118,2.779,2.779,0,0,0-.676.311q-.772.687-1.523,1.3a11.3,11.3,0,0,1-1.587,1.083,8.074,8.074,0,0,1-1.791.74,7.8,7.8,0,0,1-2.113.268,8.332,8.332,0,0,1-3.389-.7,8.9,8.9,0,0,1-4.654-4.7,8.763,8.763,0,0,1,0-6.8,9.182,9.182,0,0,1,1.866-2.81,8.677,8.677,0,0,1,2.777-1.909,8.412,8.412,0,0,1,3.4-.7,7.712,7.712,0,0,1,3.5.772,10.637,10.637,0,0,1,2.831,2.08,3.029,3.029,0,0,0,.954.547,2.518,2.518,0,0,0,.922.14,2.283,2.283,0,0,0,.826-.193,2.477,2.477,0,0,0,.686-.45,2.3,2.3,0,0,0,.815-1.823,2.788,2.788,0,0,0-.751-1.823,15.7,15.7,0,0,0-2.177-1.973,11.036,11.036,0,0,0-4.8-2.048,16.609,16.609,0,0,0-2.8-.225,13.52,13.52,0,0,0-3.668.493,13.841,13.841,0,0,0-9.63,9.63,13.777,13.777,0,0,0,.59,9.008,13.879,13.879,0,0,0,7.346,7.346,13.383,13.383,0,0,0,5.362,1.083,16.42,16.42,0,0,0,3.089-.268,11.32,11.32,0,0,0,2.606-.826,11.037,11.037,0,0,0,2.295-1.426,18.061,18.061,0,0,0,2.155-2.07,2.542,2.542,0,0,0,.59-.879,2.66,2.66,0,0,0,.182-.965,2.147,2.147,0,0,0-.279-1.072A2.226,2.226,0,0,0,223.1,540.746Z" transform="translate(-199.426 -521.486)" fill="#fff"/>
              <path id="Path_46" data-name="Path 46" d="M379.664,558.025a2.481,2.481,0,0,0-.8-.536,2.557,2.557,0,0,0-1-.193,2.515,2.515,0,0,0-1.78.729,2.657,2.657,0,0,0-.547.794,2.36,2.36,0,0,0-.2.987v8a5.211,5.211,0,0,1-.472,2.177,6.078,6.078,0,0,1-1.276,1.834,6.272,6.272,0,0,1-1.855,1.266,5.287,5.287,0,0,1-2.188.472,4.959,4.959,0,0,1-2.123-.451,5.267,5.267,0,0,1-1.673-1.222,5.608,5.608,0,0,1-1.1-1.812,6.173,6.173,0,0,1-.4-2.22v-8.043a2.39,2.39,0,0,0-.2-.976,2.64,2.64,0,0,0-.547-.8,2.483,2.483,0,0,0-.8-.536,2.556,2.556,0,0,0-1-.193,2.318,2.318,0,0,0-1.008.215,2.837,2.837,0,0,0-.794.558,2.337,2.337,0,0,0-.525.8,2.518,2.518,0,0,0-.182.933v8.064a12.027,12.027,0,0,0,.7,4.118,10.128,10.128,0,0,0,1.973,3.356,9.4,9.4,0,0,0,3.067,2.263,9.285,9.285,0,0,0,3.978.836,9.118,9.118,0,0,0,2.3-.3,12.033,12.033,0,0,0,2.241-.826,11.541,11.541,0,0,0,2.038-1.265,11.776,11.776,0,0,0,1.107-.978l.212.9a3.585,3.585,0,0,0,.869,1.941,1.943,1.943,0,0,0,1.362.547,1.213,1.213,0,0,0,1.373-1.373V559.805a2.481,2.481,0,0,0-.193-.987A2.516,2.516,0,0,0,379.664,558.025Z" transform="translate(-330.763 -550.926)" fill="#fff"/>
              <path id="Path_47" data-name="Path 47" d="M534.308,557.817a2.562,2.562,0,0,0-.814-.578,2.514,2.514,0,0,0-.986-.269,2.477,2.477,0,0,0-.977.128,2.432,2.432,0,0,0-.836.5,2.237,2.237,0,0,0-.569.816l-5.191,12.418-4.344-10.51a6.625,6.625,0,0,0-4.079-3.048l-.03-.005-.087-.02h0l-.006,0h0a7.451,7.451,0,0,0-3.63.464,10.5,10.5,0,0,0-1.7.912,9.96,9.96,0,0,0-1.372,1.092c-.215.206-.408.408-.58.6l-.193-.814a3.639,3.639,0,0,0-.858-1.941,1.923,1.923,0,0,0-1.227-.542,1.445,1.445,0,0,0-1.517,1.455v17.179a2.53,2.53,0,0,0,.193,1,2.469,2.469,0,0,0,1.34,1.34,2.527,2.527,0,0,0,1,.193,2.481,2.481,0,0,0,.977-.193,2.449,2.449,0,0,0,.8-.536,2.6,2.6,0,0,0,.547-.8,2.44,2.44,0,0,0,.2-1v-8.953a.081.081,0,0,0,.054-.066,6.366,6.366,0,0,1,.332-1.255,5.969,5.969,0,0,1,.762-1.426,4.926,4.926,0,0,1,1.072-1.083,4.579,4.579,0,0,1,1.065-.592.035.035,0,0,1,.012,0,2.411,2.411,0,0,1,2.952,1.321,2.538,2.538,0,0,0,.12.226.007.007,0,0,0,0,0l5.895,12.942a2.8,2.8,0,0,0,.966,1.073,2.075,2.075,0,0,0,1.287.343,2.581,2.581,0,0,0,1.4-.321,2.429,2.429,0,0,0,1.04-1.114l7.4-16.194a2.475,2.475,0,0,0,.226-.977,2.651,2.651,0,0,0-.15-.953A2.33,2.33,0,0,0,534.308,557.817Z" transform="translate(-450.9 -550.653)" fill="#fff"/>
              <path id="Path_48" data-name="Path 48" d="M697.39,563.473a10.027,10.027,0,0,0-2.23-3.26,10.264,10.264,0,0,0-3.314-2.145,10.737,10.737,0,0,0-4.086-.772,10.967,10.967,0,0,0-7.571,2.992,10.291,10.291,0,0,0-2.338,3.346,10.41,10.41,0,0,0-.858,4.257,10.247,10.247,0,0,0,.836,4.118,10.542,10.542,0,0,0,2.284,3.356,11.02,11.02,0,0,0,3.367,2.263,10.172,10.172,0,0,0,4.107.836,13.025,13.025,0,0,0,2.574-.268,11.265,11.265,0,0,0,2.4-.751,5.851,5.851,0,0,0,1.759-1.169,2.112,2.112,0,0,0,.686-1.523,1.815,1.815,0,0,0-.407-1.212,2.338,2.338,0,0,0-.987-.7,3.125,3.125,0,0,0-1.2-.193,2.288,2.288,0,0,0-1.072.279,5.586,5.586,0,0,1-1.737,1.019,5.753,5.753,0,0,1-1.995.354,5.028,5.028,0,0,1-2.016-.408,5.842,5.842,0,0,1-1.673-1.083,5.673,5.673,0,0,1-1.19-1.566,4.978,4.978,0,0,1-.547-1.877h13.555a3.669,3.669,0,0,0,1.909-.364,1.6,1.6,0,0,0,.558-1.437A10.225,10.225,0,0,0,697.39,563.473ZM682.141,566.2a4.966,4.966,0,0,1,.633-1.9,5.816,5.816,0,0,1,1.255-1.512,5.719,5.719,0,0,1,1.716-1.008,5.662,5.662,0,0,1,2.016-.364,5.348,5.348,0,0,1,1.963.364,5.376,5.376,0,0,1,2.831,2.52,4.871,4.871,0,0,1,.547,1.9Z" transform="translate(-592.041 -550.926)" fill="#fff"/>
            </g>
          </g>
        </g>
      </g>
      <g id="Group_33" data-name="Group 33" transform="translate(0 0)">
        <path id="Path_53" data-name="Path 53" d="M533.839,419.027q-.222.465-.472.912c-.02.036-.04.072-.063.108-.142.249-.288.494-.442.734a16.5,16.5,0,0,1-6.789,6.008q.475-.239.919-.5c.3-.175.584-.355.86-.541.216-.146.427-.3.631-.451.047-.034.092-.067.139-.1s.079-.058.117-.09l.018-.013.061-.047c.072-.056.141-.11.211-.168s.121-.1.182-.15.121-.1.18-.15l.029-.027c.2-.171.393-.346.579-.521.031-.029.065-.058.1-.09l.184-.18.117-.117q.158-.158.31-.317l.222-.238c.072-.076.139-.153.209-.231a.076.076,0,0,1,.013-.013c.07-.079.137-.155.2-.231.171-.2.335-.4.49-.6.079-.1.153-.191.222-.287s.146-.193.216-.287.146-.2.218-.3.139-.2.207-.3c.124-.182.24-.362.35-.534.009-.013.016-.027.022-.038s.029-.049.047-.076c.043-.067.085-.135.123-.2l.011-.018v0a.156.156,0,0,1,.016-.025h0c.018-.029.034-.058.052-.088l.027-.047.007-.011C533.5,419.566,533.668,419.3,533.839,419.027Z" transform="translate(-497.398 -390.519)" fill="#fff"/>
      </g>
    </g>
    <g id="Group_146256" data-name="Group 146256" transform="translate(147.413 318)">
      <g id="Group_146255" data-name="Group 146255" transform="translate(0 0)">
        <g id="Group_33-2" data-name="Group 33" transform="translate(0)">
          <path id="Path_49" data-name="Path 49" d="M435.7,412.861c-.1.3-.229.645-.389,1.034-.1.239-.207.491-.329.756a19.573,19.573,0,0,1-5.416,7.041c-.07.064-.141.132-.212.2l-.011.008c-1.465,1.367-3.067,2.823-4.581,4.179l-.169.152c-3.257,2.919-6.048,5.335-6.048,5.335l-10.857-9.789a.056.056,0,0,0-.013-.009l-1.4-1.269a21.74,21.74,0,0,1-3.43-4.262c-.008-.011-.013-.024-.021-.036A14.146,14.146,0,0,1,401,411.788h4.468s3.534,9.663,13.227,9.3a13.992,13.992,0,0,0,5.826-1.458c.265-.134.521-.273.769-.419s.489-.3.72-.453c.181-.122.357-.248.528-.378.04-.028.077-.056.117-.087s.066-.049.1-.075l.015-.011.051-.039c.06-.047.118-.092.177-.141s.1-.083.152-.126.1-.083.15-.126l.024-.023c.167-.143.329-.29.485-.436.026-.024.055-.049.081-.075l.154-.15.1-.1q.133-.133.26-.265l.186-.2c.06-.064.117-.128.175-.194a.064.064,0,0,1,.011-.011c.055-.064.111-.13.167-.194.143-.167.28-.333.41-.5.064-.081.126-.16.186-.241s.122-.162.181-.241.122-.169.182-.254.117-.167.173-.25c.1-.152.2-.3.293-.448.008-.011.013-.023.019-.032s.024-.041.04-.064c.036-.056.071-.113.1-.167l.009-.015v0a.129.129,0,0,1,.013-.021h0c.015-.024.028-.049.043-.073l.023-.039.006-.009c.12-.19.258-.416.4-.641,0,0,0,0,0,0s0,0,0,0c.32-.51.654-1.04.827-1.311l3.479-.047A2.222,2.222,0,0,1,435.7,412.861Z" transform="translate(-400.512 -389.259)" fill="#fff"/>
          <path id="Path_50" data-name="Path 50" d="M522.14,376.151v4.334h-3.983a4.963,4.963,0,0,0,.038-4.334Z" transform="translate(-495.634 -360.341)" fill="#fff"/>
          <path id="Path_51" data-name="Path 51" d="M464.219,346.162a9.074,9.074,0,0,0-17.9,2.129,9.059,9.059,0,0,0,9.074,9.074,9.068,9.068,0,0,0,9.076-9.074A8.93,8.93,0,0,0,464.219,346.162Zm-8.822,7.081a4.952,4.952,0,1,1,4.474-7.081,4.58,4.58,0,0,1,.2.5c.03.087.058.173.083.26s.049.175.068.265c.011.045.021.088.028.134q.028.127.045.26a.112.112,0,0,1,0,.026c.006.041.011.083.015.124s.011.092.013.139.009.092.011.139v0s0,0,0,0c0,.045.006.09.006.137a.458.458,0,0,1,0,.071c0,.023,0,.047,0,.071s0,.051,0,.075a.483.483,0,0,1,0,.073c0,.1-.008.2-.017.291,0,.049-.009.1-.015.145s-.011.1-.019.143-.015.1-.024.143-.015.088-.024.132-.021.1-.032.149c-.023.092-.045.184-.073.275-.013.045-.028.09-.043.135s-.03.088-.047.132-.03.083-.045.124-.038.092-.058.137a1.074,1.074,0,0,1-.056.126c-.017.043-.038.085-.058.126A4.951,4.951,0,0,1,455.4,353.243Z" transform="translate(-437.309 -330.354)" fill="#fff"/>
          <path id="Path_52" data-name="Path 52" d="M464.219,346.162a9.074,9.074,0,0,0-17.9,2.129,9.059,9.059,0,0,0,9.074,9.074,9.068,9.068,0,0,0,9.076-9.074A8.93,8.93,0,0,0,464.219,346.162Zm-8.822,7.081a4.952,4.952,0,1,1,4.474-7.081,4.58,4.58,0,0,1,.2.5c.03.087.058.173.083.26s.049.175.068.265c.011.045.021.088.028.134q.028.127.045.26a.112.112,0,0,1,0,.026c.006.041.011.083.015.124s.011.092.013.139.009.092.011.139v0s0,0,0,0c0,.045.006.09.006.137a.458.458,0,0,1,0,.071c0,.023,0,.047,0,.071s0,.051,0,.075a.483.483,0,0,1,0,.073c0,.1-.008.2-.017.291,0,.049-.009.1-.015.145s-.011.1-.019.143-.015.1-.024.143-.015.088-.024.132-.021.1-.032.149c-.023.092-.045.184-.073.275-.013.045-.028.09-.043.135s-.03.088-.047.132-.03.083-.045.124-.038.092-.058.137a1.074,1.074,0,0,1-.056.126c-.017.043-.038.085-.058.126A4.951,4.951,0,0,1,455.4,353.243Z" transform="translate(-437.309 -330.354)" fill="#fff"/>
          <path id="Path_53-2" data-name="Path 53" d="M532.576,419.027q-.186.389-.395.764c-.017.03-.034.06-.053.09-.119.209-.241.414-.37.615a13.815,13.815,0,0,1-5.685,5.031q.4-.2.769-.419c.248-.147.489-.3.72-.453.181-.122.357-.248.529-.378.039-.028.077-.056.117-.086s.066-.049.1-.075l.015-.011.051-.039c.06-.047.118-.092.177-.141s.1-.083.152-.126.1-.083.151-.126l.024-.023c.167-.143.329-.29.485-.436.026-.024.055-.049.081-.075l.154-.15.1-.1q.133-.133.26-.265l.186-.2c.06-.064.117-.128.175-.194a.067.067,0,0,1,.011-.011c.058-.066.115-.13.167-.194.143-.167.28-.333.41-.5.066-.081.128-.16.186-.241s.122-.162.181-.241.122-.169.182-.254.117-.167.173-.25c.1-.152.2-.3.293-.448.008-.011.013-.023.019-.032s.024-.041.039-.064c.036-.056.071-.113.1-.167l.009-.015v0a.125.125,0,0,1,.013-.021h0c.015-.024.028-.049.043-.073l.022-.039.006-.009C532.3,419.478,532.433,419.253,532.576,419.027Z" transform="translate(-502.061 -395.154)" fill="#fff"/>
          <path id="Path_54" data-name="Path 54" d="M433.585,315.689a2.222,2.222,0,0,0-.367-1.095l-3.479.047c-.173.271-.508.8-.828,1.311,0,0,0,0,0,0s0,0,0,0c-.143.226-.28.451-.4.641l-.006.009-.023.039a.242.242,0,0,1-.019.028c-.009.015-.019.03-.026.045a.13.13,0,0,0-.013.021v0l-.009.015c-.032.055-.068.111-.1.167-.015.023-.028.043-.04.064s-.011.021-.019.032c-.092.145-.19.3-.293.448-.056.083-.115.165-.173.25s-.12.169-.182.254-.118.16-.181.241-.122.16-.186.241c-.13.165-.267.331-.41.5-.056.064-.113.13-.167.194a.066.066,0,0,0-.011.011c-.058.066-.115.13-.175.194l-.186.2q-.127.133-.26.265l-.1.1-.154.15c-.026.026-.055.051-.081.075-.156.147-.318.293-.485.436l-.024.023c-.049.043-.1.087-.15.126s-.1.085-.152.126-.117.094-.177.141l-.051.039-.015.011c-.032.026-.066.051-.1.075s-.077.058-.117.087c-.171.13-.348.256-.528.378-.231.156-.472.308-.72.453s-.5.286-.769.419a13.772,13.772,0,1,1,5.883-19.525l.07.115c.224.382.431.775.617,1.179.543.9,1.234,1.7,2.025,1.7a2.212,2.212,0,0,0,2.212-2.214,2.175,2.175,0,0,0-.1-.668h0a.236.236,0,0,0-.013-.032c-.056-.13-.113-.261-.173-.389a18.094,18.094,0,0,0-34.391,5.268c-.038.293-.068.591-.088.888-.036.461-.053.923-.053,1.392s.017.942.053,1.4c.017.216.036.434.062.651a18.045,18.045,0,0,0,2.195,6.8c.007.011.013.024.021.036a18.2,18.2,0,0,0,4.835,5.531.057.057,0,0,1,.013.009,18.058,18.058,0,0,0,21.656.122l.011-.008q.567-.42,1.1-.884l.369-.329s.017-.017.051-.047l.231-.222.045-.045c.036-.038.077-.077.12-.12q.04-.042.085-.085c.06-.062.124-.128.192-.2.105-.111.22-.233.34-.363.211-.231.438-.491.671-.773.041-.049.083-.1.124-.15l.1-.118c.066-.083.132-.165.2-.25.105-.134.209-.273.31-.414q.124-.169.243-.344l.164-.243a17.281,17.281,0,0,0,1.3-2.3q.169-.358.322-.728c.053-.124.1-.252.152-.378h-.15C433.356,316.334,433.484,315.986,433.585,315.689Z" transform="translate(-398.393 -292.087)" fill="#fff"/>
          <path id="Path_55" data-name="Path 55" d="M526.952,378.278a9.051,9.051,0,0,1-.271,2.205h-3.407V376.15H526.7A8.967,8.967,0,0,1,526.952,378.278Z" transform="translate(-499.789 -360.341)" fill="#fff"/>
          <path id="Path_56" data-name="Path 56" d="M464.219,346.162a9.074,9.074,0,0,0-17.9,2.129,9.059,9.059,0,0,0,9.074,9.074,9.068,9.068,0,0,0,9.076-9.074A8.93,8.93,0,0,0,464.219,346.162Zm-8.822,7.081a4.952,4.952,0,1,1,4.474-7.081,4.58,4.58,0,0,1,.2.5c.03.087.058.173.083.26s.049.175.068.265c.011.045.021.088.028.134q.028.127.045.26a.112.112,0,0,1,0,.026c.006.041.011.083.015.124s.011.092.013.139.009.092.011.139v0s0,0,0,0c0,.045.006.09.006.137a.458.458,0,0,1,0,.071c0,.023,0,.047,0,.071s0,.051,0,.075a.483.483,0,0,1,0,.073c0,.1-.008.2-.017.291,0,.049-.009.1-.015.145s-.011.1-.019.143-.015.1-.024.143-.015.088-.024.132-.021.1-.032.149c-.023.092-.045.184-.073.275-.013.045-.028.09-.043.135s-.03.088-.047.132-.03.083-.045.124-.038.092-.058.137a1.074,1.074,0,0,1-.056.126c-.017.043-.038.085-.058.126A4.951,4.951,0,0,1,455.4,353.243Z" transform="translate(-437.309 -330.354)" fill="#fff"/>
        </g>
        <path id="Path_57" data-name="Path 57" d="M558.283,351.556a13.27,13.27,0,0,1-.63-1.179h4.764a2.175,2.175,0,0,1,.1.668,2.212,2.212,0,0,1-2.212,2.214C559.517,353.258,558.826,352.453,558.283,351.556Z" transform="translate(-527.702 -339.415)" fill="#fff"/>
        <path id="Path_58" data-name="Path 58" d="M563.284,412.861c-.1.3-.229.645-.389,1.034h-4.762c.008-.015.017-.03.026-.045a.251.251,0,0,0,.019-.028l.023-.039.006-.009c.12-.19.258-.416.4-.641,0,0,0,0,0,0s0,0,0,0c.32-.51.654-1.04.827-1.311l3.479-.047A2.221,2.221,0,0,1,563.284,412.861Z" transform="translate(-528.091 -389.259)" fill="#fff"/>
        <path id="Path_59" data-name="Path 59" d="M561.757,344.37a2.212,2.212,0,0,1-2.212,2.214c-.792,0-1.482-.8-2.026-1.7a13.266,13.266,0,0,1-.63-1.179c-.021-.04-.04-.077-.056-.115s-.045-.094-.066-.139c-.406-.884,1.555-1.292,2.778-1.292a2.211,2.211,0,0,1,1.926,1.125,2.187,2.187,0,0,1,.173.389.2.2,0,0,1,.009.032A2.175,2.175,0,0,1,561.757,344.37Z" transform="translate(-526.939 -332.741)" fill="#fff"/>
        <path id="Path_60" data-name="Path 60" d="M563.233,409.268a2.172,2.172,0,0,1-.1.668.034.034,0,0,1,0,.013c-.009.032-.019.062-.03.092a.139.139,0,0,1-.011.028c-.009.026-.025.06-.043.1-.006.011-.011.024-.017.038a2.094,2.094,0,0,1-.188.329,2.169,2.169,0,0,1-.327.378,2.232,2.232,0,0,1-1.514.589,5.4,5.4,0,0,1-2.892-1.254.151.151,0,0,1-.039-.066v0a.127.127,0,0,1,.013-.021c.007-.015.017-.03.026-.045l.042-.068.006-.009c.12-.19.258-.416.4-.641,0,0,0,0,0,0s0,0,0,0c.32-.51.655-1.04.828-1.311.023-.038.043-.07.06-.1,0,0,.006-.009.009-.013l.047-.075a1.167,1.167,0,0,1,.092-.088l0,0,.058-.051.1-.079c.045-.034.1-.071.158-.109l.079-.049c.049-.028.1-.058.158-.087l.036-.017c.024-.013.049-.024.075-.036l.026-.011a.352.352,0,0,1,.056-.023c.028-.013.058-.024.09-.036q.093-.034.2-.062l.047-.011a1.689,1.689,0,0,1,.175-.036c.03-.006.06-.009.09-.013a.147.147,0,0,1,.028,0c.036,0,.072-.007.109-.009s.1-.006.152-.006c.073,0,.147,0,.224.011a.867.867,0,0,1,.094.011,1.274,1.274,0,0,1,.166.028.988.988,0,0,1,.1.023,1.834,1.834,0,0,1,.192.055.4.4,0,0,1,.045.015.82.82,0,0,1,.158.077l.006,0c.032.021.064.043.094.066s.056.041.085.064a.059.059,0,0,1,.013.009c.023.019.045.038.066.056s.041.038.062.056.055.053.081.079.064.07.094.105l.058.073c.032.041.064.087.094.132a2.221,2.221,0,0,1,.367,1.094c0,.024,0,.047,0,.071v.011C563.233,409.228,563.233,409.249,563.233,409.268Z" transform="translate(-528.035 -385.524)" fill="#fff"/>
        <path id="Path_61" data-name="Path 61" d="M537.566,409.2v.011a3.513,3.513,0,0,1-.1.726.035.035,0,0,1,0,.013l-.015.056a.361.361,0,0,1-.015.036.134.134,0,0,1-.011.028c-.009.026-.024.06-.043.1-.006.011-.011.024-.017.038-.085.2-.245.54-.51,1.057-.228.44-.532,1-.935,1.71-.115.2-.237.4-.363.594l-.164.243q-.118.175-.243.344c-.1.141-.205.28-.31.414-.064.085-.13.167-.2.25l-.1.118c-.041.051-.083.1-.124.15-.233.282-.461.542-.671.773-.12.13-.235.252-.34.363-.068.071-.132.137-.192.2q-.045.042-.085.085c-.043.043-.085.083-.12.12l-.045.045-.231.222c-.034.03-.051.047-.051.047l-.369.329-5.693,5.07-.169.152,2.924-3.143,2.182-2.345a.881.881,0,0,0,.171-.933l-.448-1.093a.87.87,0,0,1-.051-.5c.134-.7.521-2.665.835-3.618a2.859,2.859,0,0,1,.16-.4c.008-.011.013-.023.019-.032s.024-.041.039-.064c.028-.051.062-.105.1-.167l.009-.015v0a.127.127,0,0,1,.013-.021c.008-.015.017-.03.026-.045l.041-.068.006-.009c.12-.19.258-.416.4-.641,0,0,0,0,0,0s0,0,0,0c.32-.51.654-1.04.827-1.311.023-.038.043-.07.06-.1,0,0,.006-.009.009-.013a.893.893,0,0,1,.139-.164l0,0,.058-.051.1-.079c.045-.034.1-.071.158-.109l.079-.049c.049-.028.1-.058.158-.087l.036-.017c.024-.013.049-.024.075-.036l.026-.011a.351.351,0,0,1,.056-.023c.028-.013.058-.024.09-.036q.093-.034.2-.062l.047-.011a1.694,1.694,0,0,1,.175-.036c.03-.006.06-.009.09-.013a.149.149,0,0,1,.028,0c.036,0,.071-.007.109-.009s.1-.006.152-.006c.073,0,.147,0,.224.011a.869.869,0,0,1,.094.011,1.269,1.269,0,0,1,.165.028.985.985,0,0,1,.1.023,1.822,1.822,0,0,1,.192.055l.021.006.024.009a.819.819,0,0,1,.158.077l.006,0c.032.021.064.043.094.066s.056.041.085.064a.059.059,0,0,1,.013.009c.023.019.045.038.066.056s.041.038.062.056.055.053.081.079.064.07.094.105l.058.073c.032.041.064.087.094.132a2.221,2.221,0,0,1,.367,1.094C537.564,409.151,537.566,409.174,537.566,409.2Z" transform="translate(-502.369 -385.524)" fill="#fff"/>
      </g>
    </g>
  </g>
</svg>
